<svg version="1.1" id="Layer_1" xmlns="http://www.w3.org/2000/svg" xmlns:xlink="http://www.w3.org/1999/xlink" x="0px" y="0px"
	 width="100%" viewBox="0 0 1080 1080" enable-background="new 0 0 1080 1080" xml:space="preserve">
<path fill="#FFFFFF" opacity="1.000000" stroke="none" 
	d="
M725.000000,1081.000000 
	C484.860992,1081.000000 245.221985,1080.991211 5.583001,1081.083740 
	C1.989187,1081.085205 0.893329,1080.521851 0.894582,1076.583984 
	C1.008183,719.625183 1.009469,362.666382 0.884167,5.707635 
	C0.882713,1.564523 1.824957,0.894090 5.791342,0.895344 
	C362.583435,1.008182 719.375610,1.007561 1076.167725,0.901183 
	C1080.048828,0.900026 1081.122437,1.436180 1081.120850,5.666727 
	C1080.989868,362.458862 1080.989746,719.251038 1081.120239,1076.043213 
	C1081.121826,1080.388184 1080.075562,1081.108887 1075.957886,1081.104370 
	C959.138672,1080.974731 842.319336,1081.000000 725.000000,1081.000000 
z"/>
<path fill="#2C4CE0" opacity="1.000000" stroke="none" 
	d="
M219.456726,775.542603 
	C175.717270,718.721558 150.206207,654.820740 141.814545,584.122314 
	C131.351700,495.974579 149.404770,413.814056 195.600891,338.103790 
	C229.928040,281.845459 276.225067,237.378860 332.746399,203.714371 
	C378.261200,176.605408 427.752747,160.687012 480.189392,153.894318 
	C546.557251,145.296982 610.968506,152.976761 673.179321,177.901871 
	C718.466431,196.046417 757.933838,223.053574 793.034485,256.745728 
	C828.050964,290.356934 857.740723,327.966553 879.421570,371.554474 
	C896.840454,406.573761 908.209900,443.488556 913.012695,482.369324 
	C921.581848,551.740479 912.076782,618.983154 887.340637,683.930420 
	C860.001221,755.712585 813.585693,813.017090 750.806763,857.076599 
	C705.057922,889.184082 654.564880,910.471802 599.684143,920.663513 
	C515.354980,936.323914 434.393341,925.242249 357.259888,887.624268 
	C302.772400,861.050720 256.906403,823.714966 219.456726,775.542603 
z"/>
<path fill="#FCFDFF" opacity="1.000000" stroke="none" 
	d="
M399.826782,516.911316 
	C406.044922,481.718597 423.842316,453.422760 452.547302,434.026520 
	C500.263214,401.784424 551.030945,400.092010 600.268677,432.661469 
	C624.070190,448.405609 642.044800,468.943665 650.607910,496.469421 
	C666.922485,548.911621 653.820435,625.279663 577.738647,657.876648 
	C501.761169,690.428833 411.791962,643.027344 399.117188,556.117981 
	C397.231445,543.187622 397.364960,530.229431 399.826782,516.911316 
z"/>
<path fill="#FAFAFE" opacity="1.000000" stroke="none" 
	d="
M811.898682,553.808777 
	C814.923462,475.423462 790.164978,407.344543 739.127075,348.713806 
	C713.032104,318.736664 681.356262,296.249756 645.303589,279.625732 
	C622.109497,268.930908 613.694763,248.314621 621.840393,224.103195 
	C623.869141,218.073074 626.848633,216.074661 631.706055,218.253998 
	C650.661011,226.758514 670.290588,233.676529 688.627625,243.658325 
	C733.769409,268.231415 770.781372,301.766235 801.012451,343.177856 
	C827.439636,379.378784 845.652161,419.427216 855.194458,462.960999 
	C871.953979,539.420593 864.141113,613.603577 830.467590,684.596191 
	C814.996765,717.212585 794.456238,746.400696 769.326782,772.366150 
	C736.911499,805.859680 699.180786,831.507568 656.169617,849.398926 
	C650.608459,851.712158 645.573975,854.985535 640.193420,857.603821 
	C630.924500,862.114136 625.262085,859.830933 621.076111,850.352478 
	C614.839233,836.230164 622.017273,807.554016 640.424133,799.529419 
	C694.740906,775.849609 738.984497,739.617554 769.769531,688.334839 
	C794.525330,647.095642 808.555420,602.335510 811.898682,553.808777 
z"/>
<path fill="#F9FAFE" opacity="1.000000" stroke="none" 
	d="
M685.684082,709.687866 
	C668.203735,725.737122 648.932678,738.254333 627.077209,746.772949 
	C622.888306,748.405640 622.040588,747.341553 621.921143,743.270630 
	C621.574402,731.454102 620.907043,719.650940 623.836548,708.016541 
	C627.156250,694.833008 634.193787,683.855896 644.245178,674.936157 
	C668.169556,653.705200 687.635254,629.217712 698.428955,598.838379 
	C719.187195,540.413147 710.559570,485.796082 675.506042,435.118683 
	C664.439880,419.120209 650.722656,405.532959 635.259216,393.724579 
	C633.670715,392.511536 632.126282,391.240997 630.545349,390.017822 
	C624.452209,385.303558 620.999023,379.868835 621.560730,371.387634 
	C622.350769,359.459869 621.517212,347.426422 621.427673,335.437805 
	C621.379517,328.992767 621.442932,328.947479 627.685486,331.250214 
	C650.533325,339.678101 670.570251,352.658081 687.840576,369.682892 
	C732.037354,413.251282 756.435547,466.261902 760.445801,528.065369 
	C763.538452,575.728149 750.218567,619.626465 725.765381,660.308472 
	C714.807373,678.539001 701.514954,694.929932 685.684082,709.687866 
z"/>
</svg>