<svg xmlns="http://www.w3.org/2000/svg" width="166" height="32" viewBox="0 0 166 32" fill="none">
<g clip-path="url(#clip0_303_8736)">
<path d="M39.0176 8.8876L43.152 7.77197V15.5157H52.252V8.20947H56.3865V25.6001H52.252V19.2126H43.152V25.6001H39.0176V8.8876Z" fill="white"/>
<path d="M65.0936 23.2813L66.6029 19.7376H71.4589L68.0685 12.5189L62.0093 25.6001H57.6562L65.9027 8.8876L70.0589 7.77197L78.612 25.6001H74.237L73.1437 23.2813H65.0936Z" fill="white"/>
<path d="M85.3709 18.7532C83.0375 18.7532 81.3021 18.0095 80.165 16.522C79.4791 15.6324 79.1367 14.6261 79.1367 13.5032C79.1367 11.9865 79.7053 10.7251 80.8429 9.71886C81.9949 8.71257 83.5042 8.20947 85.3709 8.20947H97.1837L96.0679 11.9063H85.4146C84.525 11.9063 83.9346 12.2345 83.6429 12.8907C83.5554 13.0949 83.5117 13.299 83.5117 13.5032C83.5117 14.1303 83.8178 14.5897 84.4306 14.8813C84.7223 15.0126 85.0503 15.0782 85.4146 15.0782H91.4087C93.6397 15.0782 95.3314 15.7928 96.4834 17.222C97.2125 18.1407 97.5773 19.1834 97.5773 20.3501C97.5773 21.8668 97.0087 23.1209 95.8711 24.1126C94.7335 25.1042 93.2461 25.6001 91.4087 25.6001H79.1367L80.2525 21.9032H91.365C92.269 21.9032 92.8594 21.5824 93.1367 20.9407C93.2242 20.7511 93.2679 20.5543 93.2679 20.3501C93.2679 19.723 92.9762 19.2636 92.3927 18.972C92.0866 18.8261 91.7442 18.7532 91.365 18.7532H85.3709Z" fill="white"/>
<path d="M100.049 8.8876L104.183 7.77197V15.5157H113.283V8.20947H117.417V25.6001H113.283V19.2126H104.183V25.6001H100.049V8.8876Z" fill="white"/>
<path d="M120.766 14.4876L124.9 13.372V21.9032H131.418C132.673 21.9032 133.621 21.2105 134.262 19.8251C134.685 18.9355 134.897 17.9293 134.897 16.8063C134.897 15.0855 134.466 13.7657 133.606 12.847C133.008 12.2199 132.279 11.9063 131.418 11.9063H120.766L121.881 8.20947H131.922C134.284 8.20947 136.158 9.20115 137.544 11.1845C138.696 12.847 139.272 14.8084 139.272 17.0688C139.272 19.4751 138.63 21.473 137.346 23.0626C135.99 24.7397 134.182 25.5855 131.922 25.6001H120.766V14.4876Z" fill="white"/>
<path d="M141.35 8.20947H145.484V25.6001H141.35V8.20947Z" fill="white"/>
<path d="M147.453 11.9063V8.20947H165.631L164.516 11.9063H158.018V25.6001H153.862V11.9063H147.453Z" fill="white"/>
<path fill-rule="evenodd" clip-rule="evenodd" d="M16 10.6667C13.0545 10.6667 10.6667 13.0545 10.6667 16C10.6667 18.9455 13.0545 21.3333 16 21.3333C17.5225 21.3333 18.8888 20.7023 19.8673 19.6727C19.8673 24.2667 19.8673 27.7333 19.8673 31.5285C18.6285 31.8364 17.333 32 16 32C7.16347 32 0 24.8365 0 16C0 7.16347 7.16347 0 16 0C17.333 0 18.6285 0.163605 19.8673 0.471462C19.8673 4.26667 19.8673 8 19.8673 12.3273C18.8889 11.2977 17.5225 10.6667 16 10.6667Z" fill="white"/>
<path fill-rule="evenodd" clip-rule="evenodd" d="M15.9999 10.6668C13.0544 10.6668 10.6665 13.0546 10.6665 16.0001C10.6665 18.9456 13.0544 21.3334 15.9999 21.3334C18.9454 21.3334 21.3332 18.9456 21.3332 16.0001C21.3332 13.0546 18.9454 10.6668 15.9999 10.6668ZM8.5332 16.0001C8.5332 11.8764 11.8761 8.53345 15.9999 8.53345C20.1236 8.53345 23.4665 11.8764 23.4665 16.0001C23.4665 20.1238 20.1236 23.4668 15.9999 23.4668C11.8761 23.4668 8.5332 20.1238 8.5332 16.0001Z" fill="white"/>
<path fill-rule="evenodd" clip-rule="evenodd" d="M16 2.13333C8.34165 2.13333 2.13333 8.34165 2.13333 16C2.13333 23.6583 8.34165 29.8667 16 29.8667C23.6583 29.8667 29.8667 23.6583 29.8667 16C29.8667 8.34165 23.6583 2.13333 16 2.13333ZM0 16C0 7.16347 7.16347 0 16 0C24.8365 0 32 7.16347 32 16C32 24.8365 24.8365 32 16 32C7.16347 32 0 24.8365 0 16Z" fill="white"/>
<path fill-rule="evenodd" clip-rule="evenodd" d="M16.0009 6.39994C10.699 6.39994 6.40091 10.698 6.40091 15.9999C6.40091 21.3019 10.699 25.5999 16.0009 25.5999C21.3028 25.5999 25.6009 21.3019 25.6009 15.9999C25.6009 10.698 21.3028 6.39994 16.0009 6.39994ZM4.26758 15.9999C4.26758 9.51978 9.52075 4.2666 16.0009 4.2666C22.4811 4.2666 27.7342 9.51978 27.7342 15.9999C27.7342 22.4801 22.4811 27.7333 16.0009 27.7333C9.52075 27.7333 4.26758 22.4801 4.26758 15.9999Z" fill="white"/>
</g>
<defs>
<clipPath id="clip0_303_8736">
<rect width="165.867" height="32" fill="white"/>
</clipPath>
</defs>
</svg>