<?xml version="1.0" encoding="UTF-8"?>
<svg version="1.1" xmlns="http://www.w3.org/2000/svg" width="153" height="151">
<path d="M0 0 C2.46940706 1.92479463 4.82044868 3.92295635 7.1484375 6.015625 C7.75945312 6.53382812 8.37046875 7.05203125 9 7.5859375 C22.46239493 19.81888997 30.45103289 39.32030973 31.43359375 57.19140625 C32.06650623 77.12362866 26.01933286 96.11372874 12.7734375 111.203125 C11.24897828 112.82365296 9.70818435 114.42903225 8.1484375 116.015625 C7.22611328 116.95728516 7.22611328 116.95728516 6.28515625 117.91796875 C-7.49410352 130.93007487 -24.86165553 136.18200852 -43.4140625 136.265625 C-45.08952148 136.2965625 -45.08952148 136.2965625 -46.79882812 136.328125 C-57.68260584 136.37860049 -67.38709107 134.33641158 -77.0390625 129.265625 C-77.72121826 128.91346924 -78.40337402 128.56131348 -79.10620117 128.19848633 C-84.52006309 125.33262754 -89.31531529 122.15453669 -93.8515625 118.015625 C-95.18960938 116.83226562 -95.18960938 116.83226562 -96.5546875 115.625 C-105.48152316 107.28353062 -112.593689 96.939442 -115.8515625 85.015625 C-116.12742187 84.05011719 -116.40328125 83.08460937 -116.6875 82.08984375 C-121.69585607 62.17129001 -119.8254957 40.29608498 -109.19140625 22.4921875 C-105.4465374 16.68691472 -100.78017545 11.82047662 -95.8515625 7.015625 C-95.19542969 6.35046875 -94.53929688 5.6853125 -93.86328125 5 C-68.87871355 -18.75406437 -27.55975872 -19.17857182 0 0 Z M-25.8515625 0.015625 C-25.8515625 3.315625 -25.8515625 6.615625 -25.8515625 10.015625 C-24.50964844 10.61697266 -24.50964844 10.61697266 -23.140625 11.23046875 C-8.42750136 18.04909411 1.69655222 27.4077584 7.5234375 42.890625 C12.55914615 57.55986323 11.21304254 73.33507817 4.60546875 87.26953125 C-2.39441339 100.06794275 -12.71242977 107.97872618 -25.8515625 114.015625 C-25.8515625 116.985625 -25.8515625 119.955625 -25.8515625 123.015625 C-13.08760449 118.46917093 -2.80671097 112.27900385 6.1484375 102.015625 C6.79683594 101.27957031 7.44523437 100.54351562 8.11328125 99.78515625 C17.50440623 87.84589233 21.3561963 70.88819346 19.95556641 55.95996094 C17.7066972 37.73769504 9.50505982 21.72310868 -4.8515625 10.015625 C-11.41230768 5.52546961 -18.1265129 1.97145817 -25.8515625 0.015625 Z M-25.8515625 21.015625 C-26.3348778 24.78816945 -26.53071075 28.25941278 -25.8515625 32.015625 C-24.08185429 33.94821681 -22.25392712 35.061386 -20.0234375 36.42578125 C-14.5521962 40.43080861 -11.59694947 47.63702897 -9.8515625 54.015625 C-8.6705503 66.37505497 -10.63750183 75.53039934 -18.2578125 85.2890625 C-19.80893195 86.9694419 -21.35433175 88.15492726 -23.2265625 89.453125 C-26.03184948 91.68401089 -26.03184948 91.68401089 -26.2265625 94.3203125 C-26.2265625 96.58370786 -26.11589364 98.76881027 -25.8515625 101.015625 C-17.53713167 98.72030489 -11.03076445 92.9331837 -6.65625 85.55859375 C0.17621573 72.9113002 1.86024937 61.69988276 -1.953125 47.86328125 C-5.6912091 36.01517992 -13.97856045 26.98606809 -24.8515625 21.015625 C-25.1815625 21.015625 -25.5115625 21.015625 -25.8515625 21.015625 Z M-64.8515625 48.015625 C-68.71826375 54.25223992 -68.62675832 60.82501552 -67.8515625 68.015625 C-66.10862012 74.66949937 -61.40408457 79.18986491 -55.8515625 83.015625 C-49.42423338 86.25085778 -41.25318384 86.17321675 -34.37109375 84.36328125 C-28.03857839 81.50936233 -23.65546064 76.4202606 -20.9765625 70.078125 C-18.60651943 62.7422774 -19.50531738 55.86347662 -22.8515625 49.015625 C-27.09913699 42.34929281 -32.22335432 38.94376609 -39.8515625 37.015625 C-49.72664919 35.22354878 -58.94907325 40.32599317 -64.8515625 48.015625 Z " fill="#2849E0" transform="translate(119.8515625,14.984375)"/>
</svg>
