<svg version="1.1" id="Layer_1" xmlns="http://www.w3.org/2000/svg" xmlns:xlink="http://www.w3.org/1999/xlink" x="0px" y="0px"
	 width="100%" viewBox="0 0 400 400" enable-background="new 0 0 400 400" xml:space="preserve">
<path fill="#2B4CE0" opacity="1.000000" stroke="none" 
	d="
M164.822510,95.835442 
	C191.979813,81.638557 224.631470,84.569977 247.068817,103.845192 
	C271.474030,124.810936 279.886932,151.426590 271.433380,182.475189 
	C263.503784,211.599350 238.011673,232.457184 208.127472,235.791672 
	C173.245087,239.683853 139.717529,218.063126 129.008057,184.770386 
	C117.878441,150.171524 132.330917,114.005768 164.822510,95.835442 
z"/>
<path fill="#080808" opacity="1.000000" stroke="none" 
	d="
M170.993103,308.808655 
	C173.814133,308.803375 176.146179,308.867065 178.471725,308.772095 
	C180.517441,308.688507 182.807022,308.401154 182.869232,305.782654 
	C182.940353,302.789215 180.452286,302.603668 178.243271,302.557678 
	C174.584442,302.481476 170.920944,302.607788 167.263229,302.508331 
	C163.881622,302.416351 160.620667,301.754639 158.158112,299.162720 
	C155.588745,296.458374 154.448685,293.320435 155.546524,289.574219 
	C156.804001,285.283295 159.805695,282.424652 164.023773,282.157898 
	C172.145142,281.644257 180.314529,281.897278 188.463791,281.811066 
	C190.020523,281.794586 190.703537,282.488770 190.020035,283.913696 
	C189.082962,285.867249 190.053482,289.188995 186.100159,289.055573 
	C180.948257,288.881714 175.786041,289.010315 170.628265,289.015930 
	C169.464050,289.017181 168.285187,288.937927 167.139038,289.090668 
	C165.355621,289.328278 163.892883,290.104279 163.954819,292.212891 
	C164.015472,294.277893 165.345032,295.099121 167.250870,295.115356 
	C171.077271,295.148041 174.905029,295.086670 178.730408,295.159302 
	C186.511414,295.307007 191.425552,299.337341 191.516800,305.566101 
	C191.606903,311.716919 186.577682,315.924927 178.863281,315.997192 
	C171.217163,316.068756 163.569855,316.012817 155.912033,316.012817 
	C156.402878,308.808990 156.402878,308.808960 163.014221,308.808624 
	C165.509903,308.808472 168.005600,308.808624 170.993103,308.808655 
z"/>
<path fill="#121212" opacity="1.000000" stroke="none" 
	d="
M230.750549,297.004150 
	C230.750336,302.664948 230.546844,307.837769 230.814133,312.986145 
	C231.028717,317.119232 228.233429,315.846191 226.165115,316.030426 
	C223.832123,316.238190 222.202026,316.183899 222.139893,312.832520 
	C221.964172,303.356903 221.777893,303.360352 212.056488,303.360687 
	C211.390381,303.360718 210.708847,303.453522 210.060684,303.345673 
	C205.845795,302.644287 203.721207,304.018616 204.547211,308.624939 
	C204.749710,309.754303 204.418762,310.977051 204.606354,312.111694 
	C205.191330,315.649628 203.397461,316.093109 200.373062,316.140442 
	C197.195114,316.190186 196.055161,315.443665 196.155258,312.036224 
	C196.409424,303.384399 196.215591,294.720001 196.255051,286.060913 
	C196.266434,283.561768 201.608154,280.202789 203.809753,281.205261 
	C204.834244,281.671753 204.545013,282.589417 204.556442,283.347565 
	C204.601593,286.344330 204.815140,289.366425 204.513611,292.333130 
	C204.182510,295.590393 205.526428,296.502655 208.453629,296.041443 
	C208.941101,295.964630 209.451111,296.034729 209.950638,296.029999 
	C213.774643,295.993774 218.540054,297.338745 221.170517,295.548065 
	C224.078812,293.568268 222.171036,288.473480 222.134918,284.779175 
	C222.094254,280.620117 224.851990,282.004852 226.873260,281.792053 
	C229.223160,281.544617 231.084290,281.654205 230.819473,285.020813 
	C230.520065,288.827332 230.750519,292.675507 230.750549,297.004150 
z"/>
<path fill="#040404" opacity="1.000000" stroke="none" 
	d="
M237.455215,315.547974 
	C237.105347,309.536926 237.068390,303.874664 237.068588,298.212433 
	C237.068710,294.592285 240.618317,291.634918 244.056198,292.250336 
	C245.596649,292.526093 245.135269,293.668976 245.149109,294.513428 
	C245.209122,298.176636 245.328476,301.849762 245.126816,305.502777 
	C244.978851,308.182800 245.967224,309.064026 248.558044,308.857971 
	C250.875137,308.673706 253.218475,308.825348 255.550217,308.818176 
	C262.097626,308.798096 265.091156,305.485748 264.991241,298.379639 
	C264.899048,291.821991 262.099579,289.026978 255.565186,289.009888 
	C249.581833,288.994263 243.598419,289.006561 237.659912,289.006561 
	C237.615326,283.502411 239.697937,281.045319 245.399170,281.706299 
	C250.165344,282.258850 255.046173,281.817902 259.876221,281.825500 
	C263.604309,281.831390 266.632996,283.388763 269.068970,286.123047 
	C274.506165,292.226044 275.191406,303.066559 270.608551,309.877808 
	C267.899353,313.904327 264.105713,315.980103 259.263733,315.990112 
	C252.103882,316.004913 244.943832,315.932220 237.455215,315.547974 
z"/>
<path fill="#060606" opacity="1.000000" stroke="none" 
	d="
M76.059929,286.404968 
	C76.136772,280.287292 81.309860,283.011353 84.181915,280.456482 
	C84.181915,285.061279 84.325012,288.870270 84.131767,292.662109 
	C84.002243,295.203552 84.683342,296.463013 87.411545,296.076569 
	C88.227303,295.961060 89.073334,296.064514 89.905426,296.058228 
	C93.729317,296.029358 98.521996,297.392487 101.116592,295.591003 
	C103.961967,293.615387 102.091507,288.502808 102.048805,284.797058 
	C102.006660,281.139923 104.243576,281.877838 106.306152,281.810974 
	C108.502533,281.739716 110.481331,281.386230 110.397552,284.899170 
	C110.171425,294.380188 110.199837,303.872406 110.382126,313.355286 
	C110.448631,316.814819 108.249718,316.022736 106.433914,315.974457 
	C104.526268,315.923767 101.924210,317.025848 102.081635,313.199127 
	C102.209763,310.084595 103.541840,305.900848 101.508896,304.062927 
	C99.121788,301.904785 94.870407,303.562683 91.437508,303.332520 
	C90.277733,303.254761 89.088051,303.459930 87.947212,303.293976 
	C84.745148,302.828247 83.775490,304.288086 84.153458,307.256775 
	C84.320267,308.566956 84.184204,309.916046 84.180847,311.247467 
	C84.169403,315.778992 81.833916,317.327942 77.417358,316.016571 
	C75.384712,315.413025 76.103203,313.960052 76.094894,312.824219 
	C76.031616,304.170441 76.059998,295.515961 76.059929,286.404968 
z"/>
<path fill="#0A0A0A" opacity="1.000000" stroke="none" 
	d="
M125.382484,307.513428 
	C124.905281,308.438568 124.607460,309.033691 124.345039,309.644073 
	C121.380936,316.538818 121.382393,316.539459 113.115906,315.628601 
	C118.166122,305.275055 123.146217,294.993103 128.199677,284.747345 
	C129.791504,281.519928 133.330048,282.021271 136.038605,281.283936 
	C138.481461,280.618927 138.453171,283.538940 139.166306,284.980499 
	C144.157272,295.069489 149.006149,305.228729 154.159546,315.902039 
	C149.992874,315.537079 145.586731,318.129028 143.628784,312.269287 
	C143.186249,310.944885 141.290054,311.340088 139.975616,311.336639 
	C136.148758,311.326660 132.321869,311.333099 128.507675,311.333099 
	C128.011047,302.836060 134.380356,304.582275 139.897018,304.365753 
	C137.663895,299.530762 135.693314,295.264191 133.405563,290.310913 
	C130.590286,296.382111 128.084290,301.786316 125.382484,307.513428 
z"/>
<path fill="#0D0D0D" opacity="1.000000" stroke="none" 
	d="
M306.014465,316.023712 
	C302.954407,316.427124 302.133118,315.343323 302.200745,312.718903 
	C302.371796,306.081604 302.089600,299.430786 302.331757,292.797882 
	C302.443420,289.738434 301.617126,288.531708 298.505676,288.987244 
	C297.042664,289.201447 295.512177,288.912964 294.029999,289.047455 
	C291.197205,289.304474 289.602020,288.967621 289.631165,285.262177 
	C289.659119,281.709930 291.232758,281.727875 293.818909,281.755585 
	C303.116272,281.855316 312.416107,281.740112 321.712769,281.867645 
	C322.810913,281.882660 325.377289,280.634430 324.908691,283.299194 
	C324.555664,285.306488 324.949951,288.184326 321.977844,288.983795 
	C321.357300,289.150696 320.655853,289.006348 319.992279,289.025421 
	C310.555328,289.297058 310.555389,289.297882 310.555359,298.567413 
	C310.555328,303.050568 310.338470,307.547729 310.626312,312.012299 
	C310.841400,315.348145 309.687531,316.581635 306.014465,316.023712 
z"/>
<path fill="#040404" opacity="1.000000" stroke="none" 
	d="
M277.818909,302.993652 
	C277.819031,296.669647 278.026917,290.834808 277.739471,285.024445 
	C277.573486,281.669220 279.299347,281.693604 281.665192,281.789703 
	C283.965576,281.883087 286.147461,281.275146 286.028046,285.121857 
	C285.738892,294.432159 285.775879,303.761566 286.011536,313.074890 
	C286.105652,316.793854 283.831604,315.962982 281.812622,315.999725 
	C279.712067,316.037994 277.388733,316.615784 277.754639,312.972198 
	C278.069031,309.841919 277.819214,306.654938 277.818909,302.993652 
z"/>
<path fill="#FDFDFF" opacity="1.000000" stroke="none" 
	d="
M185.501328,141.360367 
	C194.959686,135.370651 204.295547,135.038376 213.465988,140.841370 
	C221.787506,146.107178 225.553879,154.113190 224.662140,163.770538 
	C223.710144,174.080811 217.974487,181.300873 208.214355,184.967484 
	C197.682281,188.924103 185.510239,184.778015 179.255417,175.331299 
	C172.801193,165.583420 173.880005,152.945572 181.908371,144.604965 
	C182.941391,143.531769 184.101578,142.580978 185.501328,141.360367 
z"/>
<path fill="#FBFBFE" opacity="1.000000" stroke="none" 
	d="
M262.833710,146.379852 
	C270.312622,180.015015 252.135849,210.267822 223.982452,221.540573 
	C222.226959,222.243484 219.764847,224.822281 218.154526,221.880127 
	C216.424820,218.719833 218.282166,213.236435 220.852615,212.104187 
	C238.174957,204.474014 249.103836,191.499817 253.385117,173.044907 
	C259.051117,148.620987 245.786865,122.143745 222.841248,111.907372 
	C218.276245,109.870865 216.653610,106.209038 218.006470,101.337982 
	C218.758392,98.630699 220.320236,100.276573 221.453979,100.677391 
	C236.141678,105.869835 247.394516,115.301140 255.525787,128.526611 
	C258.862000,133.952911 261.060394,139.856812 262.833710,146.379852 
z"/>
<path fill="#FAFBFE" opacity="1.000000" stroke="none" 
	d="
M218.078339,131.160980 
	C218.015244,127.626114 218.015244,124.501335 218.015244,121.285286 
	C232.803741,125.857346 244.553528,143.551987 244.797226,161.222458 
	C245.038498,178.714951 233.359253,196.708832 218.192932,201.821732 
	C217.785843,196.187271 217.701141,191.789886 222.989517,187.144592 
	C240.217911,172.011154 238.408356,146.724167 220.020538,133.186600 
	C219.357239,132.698273 218.766174,132.111786 218.078339,131.160980 
z"/>
</svg>